# xmcd
#
# Track frame offsets:
#	150
#	16537
#	31222
#	46026
#	63567
#	82678
#	98781
#	112190
#	127643
#	141923
#	157879
#	172835
#	185296
#	200479
#	215349
#
# Disc length: 3068 seconds
# Revision: 0
# Processed by: cddbd v1.5.2PL0 Copyright (c) Steve Scherf et al.
# Submitted via: dBpowerAMP V12.0
#
DISCID=b00bfa0f
DTITLE=Various Artist - Units In The City
DYEAR=2008
DGENRE=Hip Hop
TTITLE0=Shawty Lo - 100,000
TTITLE1=Shawty Lo - They Know (Dey Know)
TTITLE2=Shawty Lo - Dunn, Dunn
TTITLE3=Shawty Lo - Foolish
TTITLE4=Shawty Lo featuring Yola - Let's Get It
TTITLE5=Shawty Lo - Feels Good To Be Here
TTITLE6=Shawty Lo featuring Phace Baity - Ain't Tellin' You
TTITLE7=Shawty Lo featuring Lil Mark and Braski - Cut The Check
TTITLE8=Shawty Lo - Ga Lotto
TTITLE9=Shawty Lo - That's Shawty Lo
TTITLE10=Shawty Lo - Easily I Approach
TTITLE11=Shawty Lo featuring Kool Ace - Live My Life
TTITLE12=Shawty Lo featuring Gucci Mane and Stuntman - Got Em 4 The Lo
TTITLE13=Shawty Lo featuring Miss T - Count On Me
TTITLE14=Shawty Lo featuring Mook B, G-Child, Stuntman, Lil Mark and 40 - We Gon Ride
EXTD=
EXTT0=
EXTT1=
EXTT2=
EXTT3=
EXTT4=
EXTT5=
EXTT6=
EXTT7=
EXTT8=
EXTT9=
EXTT10=
EXTT11=
EXTT12=
EXTT13=
EXTT14=
PLAYORDER=
